<mxfile host="app.diagrams.net" modified="2024-04-24T10:36:56.085Z" agent="Mozilla/5.0 (Windows NT 10.0; Win64; x64; rv:125.0) Gecko/20100101 Firefox/125.0" etag="j8XF7zB-EdlxQnrsTobK" version="24.2.7" type="device">
  <diagram name="ページ1" id="6O8cq4Rfigk1k-ii5kAo">
    <mxGraphModel dx="2474" dy="1804" grid="1" gridSize="10" guides="1" tooltips="1" connect="1" arrows="1" fold="1" page="1" pageScale="1" pageWidth="827" pageHeight="1169" math="0" shadow="0">
      <root>
        <mxCell id="0" />
        <object label="ネットワーク" id="1">
          <mxCell style="locked=1;" parent="0" />
        </object>
        <mxCell id="Hyp0zmpXTVKydts07dct-1" value="" style="endArrow=oval;html=1;rounded=0;startArrow=oval;startFill=1;endFill=1;strokeWidth=4;fillColor=#a20025;strokeColor=#6F0000;" parent="1" edge="1">
          <mxGeometry width="50" height="50" relative="1" as="geometry">
            <mxPoint x="-240" y="543" as="sourcePoint" />
            <mxPoint x="800" y="543" as="targetPoint" />
          </mxGeometry>
        </mxCell>
        <mxCell id="Hyp0zmpXTVKydts07dct-2" value="" style="endArrow=oval;html=1;rounded=0;startArrow=oval;startFill=1;endFill=1;strokeWidth=4;fillColor=#008a00;strokeColor=#005700;" parent="1" edge="1">
          <mxGeometry width="50" height="50" relative="1" as="geometry">
            <mxPoint x="-240" y="40" as="sourcePoint" />
            <mxPoint x="800" y="40" as="targetPoint" />
          </mxGeometry>
        </mxCell>
        <mxCell id="Hyp0zmpXTVKydts07dct-3" value="172.16.0.0/12" style="text;html=1;align=center;verticalAlign=middle;resizable=0;points=[];autosize=1;strokeColor=none;fillColor=none;" parent="1" vertex="1">
          <mxGeometry x="-355" y="24" width="100" height="30" as="geometry" />
        </mxCell>
        <mxCell id="Hyp0zmpXTVKydts07dct-4" value="10.0.0.0/24" style="text;html=1;align=center;verticalAlign=middle;resizable=0;points=[];autosize=1;strokeColor=none;fillColor=none;" parent="1" vertex="1">
          <mxGeometry x="-345" y="528" width="80" height="30" as="geometry" />
        </mxCell>
        <mxCell id="Hyp0zmpXTVKydts07dct-5" value="" style="endArrow=none;html=1;rounded=0;startArrow=none;startFill=0;endFill=0;strokeWidth=4;fillColor=#008a00;strokeColor=#005700;exitX=0.5;exitY=1;exitDx=0;exitDy=0;" parent="1" edge="1">
          <mxGeometry width="50" height="50" relative="1" as="geometry">
            <mxPoint x="-40" y="40" as="sourcePoint" />
            <mxPoint x="-40" y="120" as="targetPoint" />
          </mxGeometry>
        </mxCell>
        <mxCell id="Hyp0zmpXTVKydts07dct-6" value="" style="endArrow=none;html=1;rounded=0;startArrow=none;startFill=0;endFill=0;strokeWidth=4;fillColor=#a20025;strokeColor=#6F0000;exitX=0.5;exitY=1;exitDx=0;exitDy=0;" parent="1" edge="1">
          <mxGeometry width="50" height="50" relative="1" as="geometry">
            <mxPoint x="-40" y="463" as="sourcePoint" />
            <mxPoint x="-40" y="543" as="targetPoint" />
          </mxGeometry>
        </mxCell>
        <mxCell id="Hyp0zmpXTVKydts07dct-7" value="" style="endArrow=oval;html=1;rounded=0;startArrow=oval;startFill=1;endFill=1;strokeWidth=4;fillColor=#008a00;strokeColor=#02BF02;" parent="1" edge="1">
          <mxGeometry width="50" height="50" relative="1" as="geometry">
            <mxPoint x="-240" y="-31.29" as="sourcePoint" />
            <mxPoint x="800" y="-31.29" as="targetPoint" />
          </mxGeometry>
        </mxCell>
        <mxCell id="Hyp0zmpXTVKydts07dct-8" value="172.16.102.0/24" style="text;html=1;align=center;verticalAlign=middle;resizable=0;points=[];autosize=1;strokeColor=none;fillColor=none;" parent="1" vertex="1">
          <mxGeometry x="-360" y="-46" width="110" height="30" as="geometry" />
        </mxCell>
        <mxCell id="Hyp0zmpXTVKydts07dct-9" value="VXLAN 247" style="text;html=1;align=center;verticalAlign=middle;resizable=0;points=[];autosize=1;strokeColor=none;fillColor=none;" parent="1" vertex="1">
          <mxGeometry x="-180" y="-63" width="80" height="30" as="geometry" />
        </mxCell>
        <object label="マシン" id="ExSx5SIZApUU_Iw7rpWn-6">
          <mxCell style="locked=1;" parent="0" />
        </object>
        <mxCell id="Hyp0zmpXTVKydts07dct-10" value="" style="rounded=1;whiteSpace=wrap;html=1;fillColor=#dae8fc;strokeColor=#6c8ebf;align=center;horizontal=1;" parent="ExSx5SIZApUU_Iw7rpWn-6" vertex="1">
          <mxGeometry x="-160" y="120" width="910" height="340" as="geometry" />
        </mxCell>
        <mxCell id="Hyp0zmpXTVKydts07dct-11" value="eth1" style="rounded=0;whiteSpace=wrap;html=1;fillColor=#e3c800;fontColor=#000000;strokeColor=#B09500;" parent="ExSx5SIZApUU_Iw7rpWn-6" vertex="1">
          <mxGeometry x="-80" y="450" width="80" height="20" as="geometry" />
        </mxCell>
        <mxCell id="Hyp0zmpXTVKydts07dct-12" value="vxlan-247" style="rounded=0;whiteSpace=wrap;html=1;fillColor=#e3c800;fontColor=#000000;strokeColor=#B09500;" parent="ExSx5SIZApUU_Iw7rpWn-6" vertex="1">
          <mxGeometry x="-80" y="240" width="80" height="20" as="geometry" />
        </mxCell>
        <mxCell id="Hyp0zmpXTVKydts07dct-13" value="10.0.0.31" style="text;html=1;align=center;verticalAlign=middle;resizable=0;points=[];autosize=1;strokeColor=none;fillColor=none;" parent="ExSx5SIZApUU_Iw7rpWn-6" vertex="1">
          <mxGeometry x="-40" y="470" width="70" height="30" as="geometry" />
        </mxCell>
        <mxCell id="Hyp0zmpXTVKydts07dct-14" value="&lt;font style=&quot;font-size: 17px;&quot;&gt;Compute Node&lt;/font&gt;" style="text;html=1;align=center;verticalAlign=middle;resizable=0;points=[];autosize=1;strokeColor=none;fillColor=none;" parent="ExSx5SIZApUU_Iw7rpWn-6" vertex="1">
          <mxGeometry x="570" y="130" width="140" height="30" as="geometry" />
        </mxCell>
        <mxCell id="Hyp0zmpXTVKydts07dct-15" value="brq3bc6794c-93" style="rounded=0;whiteSpace=wrap;html=1;fillColor=#B39D00;fontColor=#000000;strokeColor=#B09500;" parent="ExSx5SIZApUU_Iw7rpWn-6" vertex="1">
          <mxGeometry x="-115" y="290" width="150" height="40" as="geometry" />
        </mxCell>
        <mxCell id="Hyp0zmpXTVKydts07dct-16" value="" style="endArrow=none;html=1;rounded=0;startArrow=none;startFill=0;endFill=0;strokeWidth=4;fillColor=#008a00;strokeColor=#02BF02;entryX=0.5;entryY=0;entryDx=0;entryDy=0;" parent="ExSx5SIZApUU_Iw7rpWn-6" target="Hyp0zmpXTVKydts07dct-15" edge="1">
          <mxGeometry width="50" height="50" relative="1" as="geometry">
            <mxPoint x="-40" y="260" as="sourcePoint" />
            <mxPoint x="-40" y="210" as="targetPoint" />
          </mxGeometry>
        </mxCell>
        <mxCell id="Hyp0zmpXTVKydts07dct-17" value="tapde453235-21" style="rounded=0;whiteSpace=wrap;html=1;fillColor=#e3c800;fontColor=#000000;strokeColor=#B09500;" parent="ExSx5SIZApUU_Iw7rpWn-6" vertex="1">
          <mxGeometry x="70" y="300" width="110" height="20" as="geometry" />
        </mxCell>
        <mxCell id="Hyp0zmpXTVKydts07dct-18" value="" style="endArrow=none;html=1;rounded=0;startArrow=none;startFill=0;endFill=0;strokeWidth=4;fillColor=#008a00;strokeColor=#02BF02;exitX=1;exitY=0.5;exitDx=0;exitDy=0;entryX=0;entryY=0.5;entryDx=0;entryDy=0;" parent="ExSx5SIZApUU_Iw7rpWn-6" source="Hyp0zmpXTVKydts07dct-15" target="Hyp0zmpXTVKydts07dct-17" edge="1">
          <mxGeometry width="50" height="50" relative="1" as="geometry">
            <mxPoint x="-30" y="140" as="sourcePoint" />
            <mxPoint x="-30" y="245" as="targetPoint" />
          </mxGeometry>
        </mxCell>
        <mxCell id="Hyp0zmpXTVKydts07dct-19" value="eth0" style="rounded=0;whiteSpace=wrap;html=1;fillColor=#e3c800;fontColor=#000000;strokeColor=#B09500;" parent="ExSx5SIZApUU_Iw7rpWn-6" vertex="1">
          <mxGeometry x="-80" y="110" width="80" height="20" as="geometry" />
        </mxCell>
        <mxCell id="Hyp0zmpXTVKydts07dct-20" value="brqca4e2bc3-fe" style="rounded=0;whiteSpace=wrap;html=1;fillColor=#B39D00;fontColor=#000000;strokeColor=#B09500;" parent="ExSx5SIZApUU_Iw7rpWn-6" vertex="1">
          <mxGeometry x="-115" y="170" width="150" height="40" as="geometry" />
        </mxCell>
        <mxCell id="Hyp0zmpXTVKydts07dct-21" value="" style="endArrow=none;html=1;rounded=0;startArrow=none;startFill=0;endFill=0;strokeWidth=4;fillColor=#008a00;strokeColor=#005700;" parent="ExSx5SIZApUU_Iw7rpWn-6" edge="1">
          <mxGeometry width="50" height="50" relative="1" as="geometry">
            <mxPoint x="-40.480000000000004" y="130" as="sourcePoint" />
            <mxPoint x="-40" y="170" as="targetPoint" />
          </mxGeometry>
        </mxCell>
        <mxCell id="Hyp0zmpXTVKydts07dct-22" value="" style="endArrow=none;html=1;rounded=0;startArrow=none;startFill=0;endFill=0;strokeWidth=4;fillColor=#008a00;strokeColor=#005700;entryX=0.5;entryY=0;entryDx=0;entryDy=0;exitX=0.5;exitY=1;exitDx=0;exitDy=0;dashed=1;dashPattern=1 1;" parent="ExSx5SIZApUU_Iw7rpWn-6" source="Hyp0zmpXTVKydts07dct-20" target="Hyp0zmpXTVKydts07dct-12" edge="1">
          <mxGeometry width="50" height="50" relative="1" as="geometry">
            <mxPoint x="-30" y="270" as="sourcePoint" />
            <mxPoint x="-30" y="300" as="targetPoint" />
          </mxGeometry>
        </mxCell>
        <mxCell id="Hyp0zmpXTVKydts07dct-23" value="" style="endArrow=none;html=1;rounded=0;startArrow=none;startFill=0;endFill=0;strokeWidth=4;fillColor=#008a00;strokeColor=#02BF02;exitX=1;exitY=0.5;exitDx=0;exitDy=0;jumpStyle=arc;" parent="ExSx5SIZApUU_Iw7rpWn-6" source="Hyp0zmpXTVKydts07dct-12" edge="1">
          <mxGeometry width="50" height="50" relative="1" as="geometry">
            <mxPoint x="-30" y="270" as="sourcePoint" />
            <mxPoint x="130" y="-30" as="targetPoint" />
            <Array as="points">
              <mxPoint x="130" y="250" />
            </Array>
          </mxGeometry>
        </mxCell>
        <mxCell id="Hyp0zmpXTVKydts07dct-24" value="172.16.0.31" style="text;html=1;align=center;verticalAlign=middle;resizable=0;points=[];autosize=1;strokeColor=none;fillColor=none;" parent="ExSx5SIZApUU_Iw7rpWn-6" vertex="1">
          <mxGeometry x="-40" y="140" width="90" height="30" as="geometry" />
        </mxCell>
        <mxCell id="Hyp0zmpXTVKydts07dct-30" value="" style="endArrow=none;html=1;rounded=0;startArrow=none;startFill=0;endFill=0;strokeWidth=4;fillColor=#008a00;strokeColor=#02BF02;exitX=1;exitY=0.5;exitDx=0;exitDy=0;entryX=0.451;entryY=0.559;entryDx=0;entryDy=0;entryPerimeter=0;" parent="ExSx5SIZApUU_Iw7rpWn-6" edge="1" target="Hyp0zmpXTVKydts07dct-10">
          <mxGeometry width="50" height="50" relative="1" as="geometry">
            <mxPoint x="180" y="310" as="sourcePoint" />
            <mxPoint x="230" y="310" as="targetPoint" />
            <Array as="points" />
          </mxGeometry>
        </mxCell>
        <mxCell id="Hhck_QYb7kZy7V1lm4ro-1" value="brq2549b734-56" style="rounded=0;whiteSpace=wrap;html=1;fillColor=#B39D00;fontColor=#000000;strokeColor=#B09500;" vertex="1" parent="ExSx5SIZApUU_Iw7rpWn-6">
          <mxGeometry x="-115" y="370" width="150" height="40" as="geometry" />
        </mxCell>
        <mxCell id="Hhck_QYb7kZy7V1lm4ro-2" value="" style="endArrow=none;html=1;rounded=0;startArrow=none;startFill=0;endFill=0;strokeWidth=4;fillColor=#a20025;strokeColor=#6F0000;exitX=0.5;exitY=1;exitDx=0;exitDy=0;entryX=0.5;entryY=0;entryDx=0;entryDy=0;" edge="1" parent="ExSx5SIZApUU_Iw7rpWn-6" source="Hhck_QYb7kZy7V1lm4ro-1" target="Hyp0zmpXTVKydts07dct-11">
          <mxGeometry width="50" height="50" relative="1" as="geometry">
            <mxPoint x="-40" y="410" as="sourcePoint" />
            <mxPoint x="-40" y="430" as="targetPoint" />
          </mxGeometry>
        </mxCell>
        <mxCell id="Hhck_QYb7kZy7V1lm4ro-3" value="tap84fa10ad-d5" style="rounded=0;whiteSpace=wrap;html=1;fillColor=#e3c800;fontColor=#000000;strokeColor=#B09500;" vertex="1" parent="ExSx5SIZApUU_Iw7rpWn-6">
          <mxGeometry x="70" y="380" width="110" height="20" as="geometry" />
        </mxCell>
        <mxCell id="Hhck_QYb7kZy7V1lm4ro-4" value="" style="endArrow=none;html=1;rounded=0;startArrow=none;startFill=0;endFill=0;strokeWidth=4;fillColor=#a20025;strokeColor=#6F0000;exitX=1;exitY=0.5;exitDx=0;exitDy=0;entryX=0;entryY=0.5;entryDx=0;entryDy=0;" edge="1" parent="ExSx5SIZApUU_Iw7rpWn-6" source="Hhck_QYb7kZy7V1lm4ro-1" target="Hhck_QYb7kZy7V1lm4ro-3">
          <mxGeometry width="50" height="50" relative="1" as="geometry">
            <mxPoint x="-30" y="420" as="sourcePoint" />
            <mxPoint x="-30" y="460" as="targetPoint" />
          </mxGeometry>
        </mxCell>
        <mxCell id="Hhck_QYb7kZy7V1lm4ro-6" value="" style="endArrow=none;html=1;rounded=0;startArrow=none;startFill=0;endFill=0;strokeWidth=4;fillColor=#a20025;strokeColor=#6F0000;exitX=1;exitY=0.5;exitDx=0;exitDy=0;" edge="1" parent="ExSx5SIZApUU_Iw7rpWn-6" source="Hhck_QYb7kZy7V1lm4ro-3">
          <mxGeometry width="50" height="50" relative="1" as="geometry">
            <mxPoint x="45" y="400" as="sourcePoint" />
            <mxPoint x="230" y="390" as="targetPoint" />
          </mxGeometry>
        </mxCell>
        <object label="amphora" id="21zLahzKs5m0MUraH8DA-9">
          <mxCell style="locked=1;" parent="0" />
        </object>
        <mxCell id="Hyp0zmpXTVKydts07dct-25" value="" style="rounded=1;whiteSpace=wrap;html=1;fillColor=#b8d2fa;strokeColor=#6c8ebf;align=center;horizontal=1;" parent="21zLahzKs5m0MUraH8DA-9" vertex="1">
          <mxGeometry x="280" y="160" width="450" height="280" as="geometry" />
        </mxCell>
        <mxCell id="Hhck_QYb7kZy7V1lm4ro-5" value="ens3" style="rounded=0;whiteSpace=wrap;html=1;fillColor=#e3c800;fontColor=#000000;strokeColor=#B09500;" vertex="1" parent="21zLahzKs5m0MUraH8DA-9">
          <mxGeometry x="230" y="380" width="110" height="20" as="geometry" />
        </mxCell>
        <mxCell id="Hhck_QYb7kZy7V1lm4ro-7" value="&lt;font style=&quot;font-size: 17px;&quot;&gt;Amphora&lt;/font&gt;" style="text;html=1;align=center;verticalAlign=middle;resizable=0;points=[];autosize=1;strokeColor=none;fillColor=none;" vertex="1" parent="21zLahzKs5m0MUraH8DA-9">
          <mxGeometry x="610" y="170" width="90" height="30" as="geometry" />
        </mxCell>
        <mxCell id="Hhck_QYb7kZy7V1lm4ro-8" value="10.0.0.218" style="text;html=1;align=center;verticalAlign=middle;resizable=0;points=[];autosize=1;strokeColor=none;fillColor=none;" vertex="1" parent="21zLahzKs5m0MUraH8DA-9">
          <mxGeometry x="280" y="350" width="80" height="30" as="geometry" />
        </mxCell>
        <object label="ロードバランサ" id="Hhck_QYb7kZy7V1lm4ro-9">
          <mxCell style="locked=1;" parent="0" />
        </object>
        <mxCell id="Hhck_QYb7kZy7V1lm4ro-10" value="" style="rounded=1;whiteSpace=wrap;html=1;fillColor=#3a84f1;strokeColor=#6c8ebf;align=center;horizontal=1;" vertex="1" parent="Hhck_QYb7kZy7V1lm4ro-9">
          <mxGeometry x="290" y="210" width="430" height="140" as="geometry" />
        </mxCell>
        <mxCell id="Hhck_QYb7kZy7V1lm4ro-11" value="eth1" style="rounded=0;whiteSpace=wrap;html=1;fillColor=#e3c800;fontColor=#000000;strokeColor=#B09500;" vertex="1" parent="Hhck_QYb7kZy7V1lm4ro-9">
          <mxGeometry x="250" y="300" width="110" height="20" as="geometry" />
        </mxCell>
        <mxCell id="Hhck_QYb7kZy7V1lm4ro-12" value="192.168.102.81" style="text;html=1;align=center;verticalAlign=middle;resizable=0;points=[];autosize=1;strokeColor=none;fillColor=none;" vertex="1" parent="Hhck_QYb7kZy7V1lm4ro-9">
          <mxGeometry x="290" y="270" width="110" height="30" as="geometry" />
        </mxCell>
        <mxCell id="Hhck_QYb7kZy7V1lm4ro-13" value="&lt;pre style=&quot;font-size: 17px;&quot;&gt;&lt;font style=&quot;font-size: 17px;&quot; face=&quot;Helvetica&quot;&gt;&lt;span class=&quot;w&quot;&gt;&lt;/span&gt;amphora-haproxy&lt;/font&gt;&lt;/pre&gt;" style="text;html=1;align=center;verticalAlign=middle;resizable=0;points=[];autosize=1;strokeColor=none;fillColor=none;" vertex="1" parent="Hhck_QYb7kZy7V1lm4ro-9">
          <mxGeometry x="550" y="200" width="160" height="70" as="geometry" />
        </mxCell>
      </root>
    </mxGraphModel>
  </diagram>
</mxfile>
